<svg viewBox="0 0 148 30" xmlns="http://www.w3.org/2000/svg"><g fill="none" fill-rule="evenodd"><path d="m51.4094216 25.0106636h-3.2507276v-6.1198137h-6.5014553v6.1198137h-3.2507276v-15.0311214h3.2507276v6.0124486h6.5014553v-6.0124486h3.2507276zm5.8358301-.1073652-4.1175883-10.4144198h3.0340124l2.4922245 6.9787349 2.4922245-6.9787349h3.0340125l-4.2259459 11.1659759c-.4912236 1.3027037-1.0691249 2.2725592-1.7337214 2.9095956-.6645966.6370365-1.4592109.9555499-2.383867.9555499-.2745072 0-.5237272-.0143152-.7476673-.0429461-.2239401-.0286308-.41537-.0644188-.5742952-.1073651-.1878208-.0572617-.3611912-.1145226-.5201164-.1717843v-2.5767636c.0866865.0429463.1878192.0787343.3034012.1073651.2167163.0715772.4767719.1073652.7801746.1073652.4912235 0 .8849188-.1145217 1.1810977-.3435685s.5165038-.5081934.6609813-.8374482zm14.2877219.3220955c-.5201191 0-.9752164-.0751549-1.3653056-.2254668-.3900893-.150312-.7151588-.3256733-.9752183-.5260893-.3034028-.2147314-.5706822-.4652475-.8018462-.751556v5.7977182h-2.9256548v-15.0311214h2.9256548v1.2883818c.231164-.271993.4984434-.5225092.8018462-.751556.2600595-.1861005.585129-.3578831.9752183-.5153528.3900892-.1574696.8451865-.2362033 1.3653056-.2362033.6790442 0 1.3255714.1395733 1.9396008.4187241s1.1558119.6620827 1.6253638 1.1488071c.4695519.4867245.8415759 1.0664905 1.1160831 1.7393155.2745073.672825.4117589 1.3957431.4117589 2.1687761s-.1372516 1.4959511-.4117589 2.1687761c-.2745072.672825-.6465312 1.252591-1.1160831 1.7393155-.4695519.4867244-1.0113344.8696563-1.6253638 1.1488071s-1.2605566.4187241-1.9396008.4187241zm-.541788-8.3744819c-.346746 0-.6790393.071576-.9968898.2147303-.3178505.1431542-.5959655.3399884-.8343534.5905083-.2383879.25052-.4262058.5547182-.5634595.9126038-.1372536.3578857-.2058794.7515539-.2058794 1.1810167s.0686258.823131.2058794 1.1810167c.1372537.3578856.3250716.6620838.5634595.9126038.2383879.2505199.5165029.4473541.8343534.5905083.3178505.1431543.6501438.2147303.9968898.2147303s.6790393-.071576.9968898-.2147303c.3178505-.1431542.5959656-.3399884.8343535-.5905083.2383878-.25052.4262058-.5547182.5634594-.9126038.1372536-.3578857.2058794-.7515539.2058794-1.1810167s-.0686258-.823131-.2058794-1.1810167c-.1372536-.3578856-.3250716-.6620838-.5634594-.9126038-.2383879-.2505199-.516503-.4473541-.8343535-.5905083-.3178505-.1431543-.6501438-.2147303-.9968898-.2147303zm9.9534184 2.8988591c0 .4008319.0686258.7730274.2058794 1.1165976.1372537.3435702.3250716.637032.5634595.8803942.2383879.2433623.5165029.4366176.8343534.5797719.3178505.1431542.6501438.2147303.9968898.2147303s.6790393-.0715761.9968898-.2147303c.3178505-.1431543.5959656-.3364096.8343534-.5797719.2383879-.2433622.4262059-.536824.5634595-.8803942s.2058794-.7157657.2058794-1.1165976-.0686258-.7730274-.2058794-1.1165976-.3250716-.637032-.5634595-.8803942c-.2383878-.2433623-.5165029-.4366176-.8343534-.5797719-.3178505-.1431542-.6501438-.2147303-.9968898-.2147303s-.6790393.0715761-.9968898.2147303c-.3178505.1431543-.5959655.3364096-.8343534.5797719-.2383879.2433622-.4262058.536824-.5634595.8803942-.1372536.3435702-.2058794.7157657-.2058794 1.1165976zm8.2351767 0c0 .7300867-.1516991 1.4243744-.4551019 2.082884-.3034028.6585095-.7115456 1.2382756-1.2244407 1.7393154-.5128952.5010399-1.1124678.9018658-1.798736 1.2024897-.6862681.300624-1.4050329.4509337-2.156316.4509337-.7657308 0-1.4881074-.1503097-2.1671517-.4509337-.6790443-.3006239-1.2750051-.7014498-1.7879002-1.2024897-.5128952-.5010398-.921038-1.0808059-1.2244408-1.7393154-.3034027-.6585096-.4551018-1.3527973-.4551018-2.082884s.1516991-1.4243744.4551018-2.082884c.3034028-.6585095.7115456-1.2382756 1.2244408-1.7393154.5128951-.5010399 1.1088559-.9018658 1.7879002-1.2024897.6790443-.300624 1.4014209-.4509337 2.1671517-.4509337.7512831 0 1.4700479.1503097 2.156316.4509337.6862682.3006239 1.2858408.7014498 1.798736 1.2024897.5128951.5010398.9210379 1.0808059 1.2244407 1.7393154.3034028.6585096.4551019 1.3527973.4551019 2.082884zm7.8946242-2.3620334h-2.3838669v7.6229259h-2.9256549v-7.6229259h-1.5170062v-2.5767636h1.5170062v-1.395747c0-1.245442.2889507-2.1651943.8668607-2.7592844.57791-.5940902 1.4086432-.8911308 2.4922245-.8911308.2745073 0 .530951.01789401.7693389.05368257.2383879.03578857.4442652.07515539.6176382.11810167.2022686.0572617.3900865.10736496.5634595.15031126v2.4693985c-.0866865-.0286309-.1878192-.0644189-.3034012-.1073652-.1011343-.0286308-.2167146-.0536825-.3467443-.0751556-.1300298-.0214731-.2745051-.0322095-.4334304-.0322095-.3756415 0-.6862635.1145216-.9318752.3435685-.2456118.2290468-.3684158.5081934-.3684158.8374481v1.2883819h2.3838669zm8.1113391-.1073651c-.072238-.0143154-.1517-.0286306-.238386-.0429461-.086687-.0143154-.191432-.0286306-.314237-.042946-.122806-.0143155-.26367-.0214731-.422595-.0214731-.765731 0-1.372527.236201-1.820407.70861-.447881.4724091-.671817 1.1666968-.671817 2.082884v5.0461622h-2.9256553v-10.521785h2.9256553v1.2883818c.216716-.2576776.476771-.486721.780174-.6871369.26006-.1717851.577905-.3328313.953547-.4831432.375641-.150312.809067-.2254668 1.300291-.2254668h.43343zm4.427182 7.730291h-2.925655v-10.521785h2.925655zm.216715-13.5280093c0 .4867245-.151699.876814-.455102 1.1702802s-.729605.4401971-1.278619.4401971c-.491224 0-.884919-.1467309-1.181098-.4401971s-.444266-.6835557-.444266-1.1702802c0-.4867244.148087-.8768139.444266-1.1702801s.689874-.44019715 1.181098-.44019715c.549014 0 .975216.14673095 1.278619.44019715s.455102.6835557.455102 1.1702801zm4.860612 9.2334032c.115582.5439861.408144 1.0199669.877696 1.4279565s1.116079.6119814 1.939601.6119814c.462328 0 .866859-.0679973 1.213605-.2039938.346746-.1359966.64292-.2827275.888532-.4401971.274507-.1861006.512892-.4008287.71516-.644191l1.517006 1.9325728c-.31785.3578856-.707933.6656627-1.170261.9233403-.39009.2290468-.866858.4366174-1.430321.6227179-.563462.1861005-1.213601.2791494-1.950436.2791494-.780179 0-1.513391-.1431521-2.199659-.4294606s-1.285841-.6799768-1.798736-1.1810167-.913814-1.0808059-1.202769-1.7393155c-.288955-.6585095-.433431-1.3671125-.433431-2.12583 0-.7444021.144476-1.4494262.433431-2.1150935s.686262-1.2490121 1.191933-1.750052 1.090796-.8947082 1.755393-1.1810167 1.379749-.4294606 2.14548-.4294606c.751283 0 1.451989.1324157 2.102137.3972511.650149.2648353 1.213603.633452 1.690379 1.105861.476776.4724091.8488 1.0307023 1.116083 1.6748964.267283.6441942.400923 1.3384819.400923 2.082884 0 .2004159-.007224.3721985-.021672.5153527-.014447.1431543-.028895.2648336-.043343.3650415-.014447.1145234-.028895.2147299-.043343.3006225zm2.492224-3.9725107c-.650149 0-1.188319.1860978-1.614528.5582988-.426208.3722011-.718771.8302878-.877696 1.374274h4.876091c-.115582-.5439862-.379249-1.0020729-.79101-1.374274-.411761-.372201-.942708-.5582988-1.592857-.5582988zm10.170134-.9662864c.216716-.271993.476772-.5225092.780174-.751556.26006-.1861005.577906-.3578831.953547-.5153528.375642-.1574696.809068-.2362033 1.300291-.2362033.592358 0 1.141364.1037853 1.647036.311359.505671.2075736.942709.5117718 1.311126.9126038.368418.4008319.653757.8839702.856025 1.4494295.202269.5654593.303402 1.2132226.303402 1.9433093v6.1198137h-2.925655v-5.7977183c0-.6441941-.19143-1.1631205-.574296-1.5567947-.382865-.3936742-.877693-.5905083-1.484498-.5905083-.650149 0-1.173872.2075705-1.571185.6227179-.397314.4151473-.595967 1.0307014-.595967 1.8466806v5.4756228h-2.925655v-10.521785h2.925655zm14.179364-1.5031121c.505671 0 .957157.0787337 1.35447.2362033.397313.1574697.725994.3292523.986054.5153528.303403.2290468.570682.479563.801846.751556v-5.7977182h2.925655v15.0311214h-2.925655v-1.2883818c-.231164.2863085-.498443.5368246-.801846.751556-.26006.200416-.588741.3757773-.986054.5260893-.397313.1503119-.848799.2254668-1.35447.2254668-.679044 0-1.325571-.1395733-1.939601-.4187241-.614029-.2791508-1.155812-.6620827-1.625364-1.1488071-.469551-.4867245-.841575-1.0664905-1.116083-1.7393155-.274507-.672825-.411758-1.3957431-.411758-2.1687761s.137251-1.4959511.411758-2.1687761c.274508-.672825.646532-1.252591 1.116083-1.7393155.469552-.4867244 1.011335-.8696563 1.625364-1.1488071.61403-.2791508 1.260557-.4187241 1.939601-.4187241zm.541788 8.3744819c.346746 0 .679039-.071576.99689-.2147303.31785-.1431542.595965-.3399884.834353-.5905083.238388-.25052.426206-.5547182.56346-.9126038.137253-.3578857.205879-.7515539.205879-1.1810167s-.068626-.823131-.205879-1.1810167c-.137254-.3578856-.325072-.6620838-.56346-.9126038-.238388-.2505199-.516503-.4473541-.834353-.5905083-.317851-.1431543-.650144-.2147303-.99689-.2147303s-.679039.071576-.99689.2147303c-.31785.1431542-.595965.3399884-.834353.5905083-.238388.25052-.426206.5547182-.56346.9126038-.137253.3578857-.205879.7515539-.205879 1.1810167s.068626.823131.205879 1.1810167c.137254.3578856.325072.6620838.56346.9126038.238388.2505199.516503.4473541.834353.5905083.317851.1431543.650144.2147303.99689.2147303z" fill="#0d324d"/><path d="m3.98367715 11.0735913 9.71939705-5.39950141c.3859531-.21441185.8546241-.21709939 1.2430107-.00712792l10.007828 5.41048123c.5570813.301172.9042341.8834889.9042341 1.5167693v13.0206422c0 .95227-.7719674 1.7242374-1.7242374 1.7242374h-19.31288815c-.95227001 0-1.72423738-.7719674-1.72423738-1.7242374v-13.033998c0-.6261943.33949688-1.2031656.88689308-1.5072654zm3.75828303 6.9424524c1.81651709 1.7030529 4.07957232 2.5591771 6.73550532 2.5591771 2.6559331 0 4.9189883-.8561242 6.7355054-2.5591771l-1.3724925-1.437656c-1.4380551 1.3482305-3.2078393 2.017748-5.3630129 2.017748s-3.9249578-.6695175-5.36301282-2.017748zm13.78068912-14.2559797v-1.90752205c0-.35710125.2894878-.64658901.646589-.64658901h1.4939276c.3571013 0 .6465891.28948776.6465891.64658901v3.5273365l3.8730667 2.25095502c.3734584.21704714.6044933.61521683.607604 1.04715544l.009547 1.32567149c.0009293.1290471-.0329181.2559621-.0979856.3674083-.2000566.342653-.6400097.4582502-.9826626.2581935l-13.0578591-7.62378158c-.1615407-.09431489-.3613637-.09428756-.5228785.00007153l-13.05775035 7.62850915c-.10997019.064246-.23504264.0981032-.36240431.0981032-.39677917 0-.71843224-.321653-.71843224-.7184322v-1.37122846c0-.4362696.23270967-.83941064.61049459-1.05760717l12.63609981-7.29820878c.7133977-.41203582 1.5927348-.41084638 2.3050153.0031179z" fill="#1b8391"/></g></svg>